<svg width="32" height="32" viewBox="0 0 32 32" fill="none" xmlns="http://www.w3.org/2000/svg">
<path d="M8.51172 23.5508C8.37109 23.418 8.27734 23.2617 8.23047 23.082C8.19141 22.8945 8.19531 22.7109 8.24219 22.5312C8.28906 22.3516 8.37891 22.1953 8.51172 22.0625L14.5234 16.0508L8.51172 10.0508C8.37891 9.91797 8.28906 9.76172 8.24219 9.58203C8.19531 9.40234 8.19141 9.22266 8.23047 9.04297C8.27734 8.85547 8.37109 8.69531 8.51172 8.5625C8.64453 8.42969 8.80078 8.33984 8.98047 8.29297C9.16016 8.24609 9.33984 8.24609 9.51953 8.29297C9.70703 8.33984 9.86719 8.42969 10 8.5625L16 14.5742L22.0117 8.5625C22.1445 8.42969 22.3008 8.33984 22.4805 8.29297C22.6602 8.24609 22.8398 8.24609 23.0195 8.29297C23.1992 8.33984 23.3555 8.42969 23.4883 8.5625C23.6289 8.69531 23.7188 8.85547 23.7578 9.04297C23.8047 9.22266 23.8047 9.40234 23.7578 9.58203C23.7188 9.76172 23.6289 9.91797 23.4883 10.0508L17.4883 16.0508L23.4883 22.0625C23.6289 22.1953 23.7188 22.3516 23.7578 22.5312C23.8047 22.7109 23.8047 22.8945 23.7578 23.082C23.7188 23.2617 23.6289 23.418 23.4883 23.5508C23.3555 23.6836 23.1992 23.7734 23.0195 23.8203C22.8398 23.8672 22.6602 23.8672 22.4805 23.8203C22.3008 23.7734 22.1445 23.6836 22.0117 23.5508L16 17.5391L10 23.5508C9.86719 23.6836 9.70703 23.7734 9.51953 23.8203C9.33984 23.8672 9.16016 23.8672 8.98047 23.8203C8.80078 23.7734 8.64453 23.6836 8.51172 23.5508Z" fill="black"/>
</svg>
