<svg width="32" height="32" viewBox="0 0 32 32" fill="none" xmlns="http://www.w3.org/2000/svg">
<path d="M5.64648 18.2441C5.64648 16.8145 5.91211 15.4746 6.44336 14.2246C6.98242 12.9668 7.72461 11.8652 8.66992 10.9199C9.61523 9.97461 10.7129 9.23633 11.9629 8.70508C13.2207 8.16602 14.5684 7.89648 16.0059 7.89648C16.3652 7.89648 16.7129 7.91602 17.0488 7.95508C17.3926 7.98633 17.7168 8.0332 18.0215 8.0957L14.9043 5.01367C14.8184 4.91992 14.752 4.81445 14.7051 4.69727C14.666 4.58008 14.6465 4.46289 14.6465 4.3457C14.6465 4.07227 14.7324 3.8457 14.9043 3.66602C15.084 3.47852 15.3066 3.38477 15.5723 3.38477C15.8535 3.38477 16.0801 3.47852 16.252 3.66602L21.0801 8.56445C21.2754 8.76758 21.373 9.00195 21.373 9.26758C21.373 9.40039 21.3496 9.52539 21.3027 9.64258C21.2559 9.75977 21.1816 9.86914 21.0801 9.9707L16.252 14.8223C16.0879 15.002 15.8613 15.0918 15.5723 15.0918C15.3145 15.0918 15.0957 15.002 14.916 14.8223C14.7363 14.6426 14.6465 14.4199 14.6465 14.1543C14.6465 14.0293 14.6699 13.9121 14.7168 13.8027C14.7637 13.6855 14.8301 13.5801 14.916 13.4863L18.4199 10.0176C18.0762 9.93945 17.6973 9.88086 17.2832 9.8418C16.877 9.80273 16.4512 9.7832 16.0059 9.7832C14.8262 9.7832 13.7246 10.002 12.7012 10.4395C11.6777 10.877 10.7793 11.4824 10.0059 12.2559C9.23242 13.0293 8.62695 13.9277 8.18945 14.9512C7.75195 15.9746 7.5332 17.0723 7.5332 18.2441C7.5332 19.4238 7.75195 20.5293 8.18945 21.5605C8.62695 22.584 9.23242 23.4863 10.0059 24.2676C10.7793 25.041 11.6777 25.6426 12.7012 26.0723C13.7246 26.5098 14.8262 26.7285 16.0059 26.7285C17.1777 26.7285 18.2754 26.5098 19.2988 26.0723C20.3223 25.6426 21.2207 25.041 21.9941 24.2676C22.7676 23.4863 23.373 22.584 23.8105 21.5605C24.248 20.5293 24.4668 19.4238 24.4668 18.2441C24.4668 17.9629 24.5488 17.7324 24.7129 17.5527C24.877 17.3652 25.0996 17.2715 25.3809 17.2715C25.6699 17.2715 25.9043 17.3652 26.084 17.5527C26.2637 17.7324 26.3535 17.9629 26.3535 18.2441C26.3535 19.6895 26.0879 21.041 25.5566 22.2988C25.0254 23.5488 24.2832 24.6504 23.3301 25.6035C22.3848 26.5488 21.2832 27.2871 20.0254 27.8184C18.7754 28.3496 17.4355 28.6152 16.0059 28.6152C14.5684 28.6152 13.2207 28.3496 11.9629 27.8184C10.7129 27.2871 9.61523 26.5488 8.66992 25.6035C7.72461 24.6504 6.98242 23.5488 6.44336 22.2988C5.91211 21.041 5.64648 19.6895 5.64648 18.2441Z" fill="white"/>
</svg>
